PathFileType	4	(X/Y/Z)	52_2_61_p1_0-236_filt_butterworth.trc
DataRate	CameraRate	NumFrames	NumMarkers	Units	OrigDataRate	OrigDataStartFrame	OrigNumFrames
46.0	46.0	5	27	m	46.0	88	236
Frame#	Time	RHip			RKnee			RAnkle			RBigToe			RSmallToe			RHeel			LHip			LKnee			LAnkle			LBigToe			LSmallToe			LHeel			Neck			Head			Nose			RShoulder			RElbow			RWrist			RThumb			RIndex			RPinky			LShoulder			LElbow			LWrist			LThumb			LIndex			LPinky			
		X1	Y1	Z1	X2	Y2	Z2	X3	Y3	Z3	X4	Y4	Z4	X5	Y5	Z5	X6	Y6	Z6	X7	Y7	Z7	X8	Y8	Z8	X9	Y9	Z9	X10	Y10	Z10	X11	Y11	Z11	X12	Y12	Z12	X13	Y13	Z13	X14	Y14	Z14	X15	Y15	Z15	X16	Y16	Z16	X17	Y17	Z17	X18	Y18	Z18	X19	Y19	Z19	X20	Y20	Z20	X21	Y21	Z21	X22	Y22	Z22	X23	Y23	Z23	X24	Y24	Z24	X25	Y25	Z25	X26	Y26	Z26	X27	Y27	Z27	
88	1.9130434782608696	0.24667062684413524	0.5384391337561424	0.4752938243582954	0.15188316480357936	0.673670624372368	0.9106912264569789	0.058876813904902105	0.768506073129489	1.2726268984808733	0.0069200841655359235	0.6194398614433929	1.3197540822553193	0.07513945503183	0.6200633963975146	1.327012396687592	0.019480114975310152	0.886133898029834	1.3261229705035007	0.0639570151221828	0.5267707912867194	0.4407884075006382	-0.05591842288392425	0.6940231912750648	0.852188920235751	-0.13671744983160658	0.7760805936595672	1.230893764929012	-0.13783628063324346	0.62636020269297	1.2710320001605977	-0.19674549484688791	0.6541262704747828	1.2581696091939893	-0.13178736141041303	0.8313815423319877	1.283947814687281	0.2611206658512433	0.42421133930979377	-0.016375382135365015	0.31825530473306973	0.3498203823115077	-0.2543966505748654	0.28726945185232095	0.33767611312917195	-0.11790525031601712	0.3797569827213705	0.4538410174418498	0.10900428872013287	0.36550365426467424	0.5593698647338761	0.3869312320951297	0.2977194425354447	0.5226125448511285	0.6236268361276212	0.23013470901001226	0.4989903704821335	0.7115745813010619	0.23356842174107137	0.5330773662917344	0.7549055570618297	0.27196610417369005	0.5669300317819519	0.7580902504842602	0.09143112168363478	0.48137908867778334	0.017177618213554093	0.0023060974268834886	0.464544343552311	0.27063354675635354	-0.033412991733781	0.4997873564123754	0.5038597770898229	-0.003233812693527513	0.4887775031370674	0.6183583764503118	-0.0327056163886655	0.46299887835578757	0.6649443499267702	-0.07759947253062596	0.5230672918638173	0.6382761244766689
89	1.934782608695652	0.24666826407963222	0.5384525350698717	0.4753389646289942	0.15182067428509646	0.6735286854827838	0.9123528297925627	0.05895637068509023	0.7685624665668979	1.2726496466185657	0.0069125861655871205	0.6196110331019218	1.319820574377402	0.07510206873591291	0.6201404971248903	1.3271805141018154	0.019159735345070004	0.8863592841261496	1.327370536187797	0.06469333918250887	0.5266423666295554	0.4405428858845769	-0.05573592185926653	0.6935562215296731	0.8503157078191232	-0.13650551540028666	0.776173010056787	1.2287048186550313	-0.13782878914409366	0.6262999904641811	1.2710231315033855	-0.1967259269905701	0.6541275277175997	1.2581487951829269	-0.13179448444504782	0.831449848709396	1.283884140519501	0.2611328165731347	0.4242321550822996	-0.016386648077741785	0.31803865934062103	0.3496292488908207	-0.255431843654307	0.28700663754833783	0.3371240748465271	-0.11704057208001559	0.37977959722138965	0.4538441989955895	0.10900457687700307	0.3655242436240277	0.5593168029336111	0.38688213175557545	0.2981145563302184	0.5226658562869794	0.6226426851535984	0.23128632674590927	0.504452668023839	0.7127323013559645	0.23362415370722894	0.532939802964007	0.7545706613074783	0.2719783391826451	0.5664780507510946	0.7579749959374505	0.09137846944514474	0.4815409049528298	0.0175312166633215	0.002371116867519292	0.468403554168367	0.27168063462424696	-0.033675866268067026	0.49969372177543003	0.5056398137586193	-0.0035455602958814228	0.4922447031652517	0.6203776788707926	-0.0331973002795217	0.46313983720981333	0.6656825887361788	-0.07790682049592114	0.5232529961915945	0.6398177231599906
90	1.9565217391304348	0.24669879705242304	0.5384679718042368	0.4752305742468189	0.151798881929954	0.673483628482229	0.9121414100445079	0.05895499806307858	0.7685651537790814	1.2726456571321167	0.006905997641557692	0.6196959033336471	1.3198247585597427	0.07500610374671424	0.6201357219460948	1.327248210257979	0.018626182661957355	0.8863107046716987	1.3280352750028923	0.06455424809182378	0.5265315490614307	0.4404581782495841	-0.055574870031583984	0.6922664118972264	0.8487481453646265	-0.13586701335354254	0.7761685284343292	1.2273670779814145	-0.13782576646666525	0.6263793098514119	1.271053461403016	-0.1967295944458165	0.6541450948696224	1.258134759683345	-0.13178264838866002	0.8315227517360392	1.2839662517167711	0.2611328446077622	0.42426311876231	-0.016390303739134592	0.31703405026796283	0.34911790464748504	-0.25583169410198164	0.28678852359266077	0.3336962839214934	-0.11541158606396285	0.37979388478514514	0.4538507979721986	0.10901516513023798	0.36554086875244884	0.5592653652694193	0.3868517427074176	0.2986383833124312	0.5226442877639208	0.6211666207092958	0.23204394665678868	0.5080336460777651	0.7134875492633674	0.23364138748886346	0.5323749209026749	0.7533661712105852	0.27168618608737716	0.5662863950548003	0.7580747822880313	0.09123933070159047	0.48206068501818944	0.018457778770614157	0.0021375646687780475	0.47422731277384117	0.27315801598704836	-0.03383214779679292	0.4996502873053037	0.5068432163829076	-0.0038879305249510617	0.4944754852735607	0.6231724552490268	-0.03327352707307482	0.4634468179410691	0.6669712950630545	-0.07806882281274541	0.5239227934603146	0.641183452094356
91	1.9782608695652173	0.2467524566423626	0.5384409609943046	0.4749466387900322	0.1517100246068535	0.6736139209049686	0.9122036298152711	0.05895946769364422	0.7685532184428494	1.272650970495562	0.006912131401127381	0.6196704224724944	1.3197955731465745	0.07495452874496258	0.6200314253127226	1.3271243008681761	0.01765784823704908	0.8854329057189001	1.3268074870999447	0.06406684762902987	0.5265278318326967	0.4406034294944614	-0.055524969713138125	0.6923454567261194	0.850792515317663	-0.13505012858881393	0.7760035409757097	1.2275577469568395	-0.13781854794058687	0.6267069586801974	1.2711604234615854	-0.19676715411990742	0.6541676134561105	1.258139962487888	-0.1317365048627278	0.8316323017994229	1.2841392195291725	0.261131434892218	0.4242833511032317	-0.016392869932735917	0.31564830892607926	0.3486877333404741	-0.2558793795192486	0.287109920793996	0.32830828992283273	-0.11379812965073709	0.379810031110036	0.45386607897007347	0.10902573112834535	0.36554746875825844	0.55922944196238	0.3868497744790679	0.2989568433310818	0.5226286385288681	0.6202264943359042	0.2321680925076324	0.5086139927276482	0.7136049919226527	0.23367192089811092	0.5314453195373405	0.7514281326871084	0.27136983538750803	0.5662178563119317	0.7581820601281903	0.09098658589085847	0.4828364562606697	0.020034503863181043	0.002176903992703604	0.4780659353283344	0.2742564274585457	-0.03383649524163731	0.4995081552383585	0.5070453005159443	-0.0039420109020304826	0.4948141430808959	0.6243920166890293	-0.033021101228877386	0.46364049457123074	0.6678227702454945	-0.07808688506403082	0.5247370208182313	0.6416739256722345
92	2.0	0.24668610704751287	0.5383549168944705	0.47527949393925145	0.15160588081659004	0.6742805852536313	0.9133697690971535	0.05888411867821476	0.768533139217291	1.272638817403001	0.006897894318555031	0.6195407051833304	1.3198275295948938	0.07494029387460717	0.619868862082161	1.3268838756834358	0.016235195811872872	0.8841066307937869	1.3248076785295764	0.0637343053087609	0.526549572248302	0.4407899692818378	-0.05548723162763151	0.6965526861245942	0.8551257715502503	-0.1345237191741632	0.7757959170243361	1.2277806875370338	-0.13779626108247328	0.6265978520400098	1.2711484915751532	-0.19681655298825643	0.6542067105064658	1.2581657460649398	-0.1316896047359593	0.8315156351704438	1.2839431873250002	0.2611318146737002	0.42429302558721005	-0.016403342772698837	0.3147793438254041	0.3485902502547893	-0.2558621746950916	0.2880164546463456	0.32460663859439964	-0.11293020767192459	0.37981506684014305	0.453884732745306	0.10902891852881566	0.3655504235869706	0.5592212760235296	0.38684616468736255	0.29899932993447864	0.5226246008204236	0.6200867871675222	0.2320686508539655	0.5081694778473737	0.7135017639648747	0.23373576696605908	0.5308108845513269	0.7500880036160371	0.27121020969784393	0.5661692036525423	0.7582193403580173	0.09078963307818608	0.4833599609662783	0.021167575495319512	0.0025044484199858138	0.4787129552071055	0.27462727783027596	-0.03380087789673118	0.4993234329096066	0.5068781736443737	-0.0037304914145204022	0.49439056414397525	0.6240513026451227	-0.03282073133901776	0.4637254939537641	0.668013696653666	-0.07804813259620741	0.5253617129059345	0.6418447779159924
